<svg width="238" height="215" viewBox="0 0 238 215" fill="none" xmlns="http://www.w3.org/2000/svg">
<g clip-path="url(#clip0)">
<path d="M103.8 20L96.4004 43H111.3L103.8 20Z" fill="#EF2B2D"/>
<path d="M118.8 20L111.4 43H126.3L118.8 20Z" fill="#EF2B2D"/>
<path d="M133.8 20L126.4 43H141.3L133.8 20Z" fill="#EF2B2D"/>
<path d="M41.4 48.1L40.8 48.6L33 67.3V48.8L32.4 48.1H20.7L20 48.8V106.5L20.7 107.2H32.4L33 106.5V85.7L34.4 82.2L42.5 106.8L43.2 107.2H55.3L55.9 106.3L43.4 72.5L55.1 49.1L54.4 48.1H41.4Z" fill="white"/>
<path d="M67.7002 65.2C67.7002 60 69.2002 57.4 72.2002 57.4C75.2002 57.4 76.7002 60 76.7002 65.2V90.1C76.7002 95.4 75.2002 97.9 72.2002 97.9C69.2002 97.9 67.7002 95.3 67.7002 90.1V65.2ZM72.2002 47C60.6002 47 54.7002 54.1 54.7002 68.1V87.5C54.7002 101.1 60.8002 108.3 72.2002 108.3C83.7002 108.3 89.8002 101 89.8002 87.2V68.2C89.8002 54.1 83.9002 47 72.2002 47Z" fill="white"/>
<path d="M115 48.1L114.3 48.8V75.6L103 48.5L102.3 48.1H93.8998L93.2998 48.8V106.5L93.8998 107.2H104L104.7 106.5V78.1L116 106.8L116.6 107.2H124.7L125.4 106.5V48.8L124.7 48.1H115Z" fill="white"/>
<path d="M130.2 48.1L129.5 48.8V106.5L130.2 107.2H141.9L142.6 106.5V48.8L141.9 48.1H130.2Z" fill="white"/>
<path d="M168.5 48.1L167.8 48.8V75.6L156.5 48.5L155.8 48.1H147.4L146.8 48.8V106.5L147.4 107.2H157.5L158.2 106.5V78.1L169.5 106.8L170.1 107.2H178.2L178.9 106.5V48.8L178.2 48.1H168.5Z" fill="white"/>
<path d="M217 76.2H198.7L198 76.9V85.3L198.7 86H204.6V89.9C204.6 95.3 203 98 200 98C196.9 98 195.3 95.4 195.3 90.2V65.2C195.3 63.3 195.3 57.4 200 57.4C204.1 57.4 204.7 61.7 204.7 66.3V70.3L205.4 71H216.6L217.3 70.3V66.9C217.3 53.9 211.4 47 200.1 47C188.4 47 182.4 54.1 182.4 68.1V88.4C182.4 97.6 186.4 108.3 197.8 108.3C201.4 108.3 205.2 106.5 207.4 103.9L208.4 106.7L209 107.1H217L217.7 106.4V76.9L217 76.2Z" fill="white"/>
<path d="M59.4002 112.3L58.8002 112.8L56.4002 137L53.4002 112.8L52.8002 112.3H46.1002L45.5002 112.8L42.4002 137.1L40.1002 112.8L39.5002 112.3H31.8002L31.2002 113L37.4002 157.7L38.0002 158.2H45.7002L46.3002 157.7L49.4002 133.1L52.6002 157.7L53.2002 158.2H60.9002L61.5002 157.7L67.8002 113L67.2002 112.3H59.4002Z" fill="white"/>
<path d="M70.6 112.3L70 112.9V157.6L70.6 158.2H79.7L80.3 157.6V112.9L79.7 112.3H70.6Z" fill="white"/>
<path d="M94.6004 150.8V112.9L94.0004 112.3H85.0004L84.4004 112.9V157.6L85.0004 158.2H102.9L103.5 157.6V151.4L102.9 150.8H94.6004Z" fill="white"/>
<path d="M116.8 150.8V112.9L116.2 112.3H107.2L106.6 112.9V157.6L107.2 158.2H125.1L125.7 157.6V151.4L125.1 150.8H116.8Z" fill="white"/>
<path d="M129.4 112.3L128.8 112.9V157.6L129.4 158.2H148.1L148.7 157.6V151.4L148.1 150.8H139V138.2H145.3L145.9 137.6V131.3L145.3 130.7H139V119.7H148.1L148.7 119.1V112.9L148.1 112.3H129.4Z" fill="white"/>
<path d="M173.3 112.3L172.7 112.8L168.2 139.1L164 112.8L163.4 112.3H152.6L152 112.9V157.7L152.6 158.3H159.3L159.9 157.7L160.1 132.7L164.5 157.8L165.1 158.3H171.9L172.5 157.8C173.2 153 174.2 147.4 175.1 142.1C175.6 139.2 176.1 136.3 176.6 133.5L176.8 157.8L177.4 158.4H184.1L184.7 157.8V112.9L184.1 112.3H173.3V112.3Z" fill="white"/>
<path d="M204 112.3H195L194.4 112.9V157.6L195 158.2H204L204.6 157.6V112.9L204 112.3Z" fill="white"/>
<path d="M67.4998 163C61.3998 163 58.2998 166.7 58.2998 174.1V184.1C58.2998 191.4 61.4998 195.2 67.4998 195.2C73.1998 195.2 76.2998 191.4 76.3998 184.3V181.8L75.9998 181.4H69.9998L69.5998 181.8V184.9C69.5998 185.7 69.5998 188.2 68.6998 189.2C68.3998 189.5 67.9998 189.6 67.5998 189.6C66.9998 189.6 65.3998 189.6 65.3998 185.6V172.6C65.3998 169.9 66.0998 168.6 67.5998 168.6C69.3998 168.6 69.5998 170.9 69.5998 173.3V176.1L69.9998 176.5H75.9998L76.3998 176.1V173.5C76.3998 166.6 73.2998 163 67.4998 163Z" fill="white"/>
<path d="M90.2002 185.7C90.2002 188.4 89.4002 189.7 87.9002 189.7C86.4002 189.7 85.6002 188.3 85.6002 185.7V172.7C85.6002 170 86.4002 168.7 87.9002 168.7C89.4002 168.7 90.2002 170.1 90.2002 172.7V185.7ZM87.9002 163C81.8002 163 78.7002 166.7 78.7002 174.1V184.2C78.7002 191.4 81.9002 195.1 87.9002 195.1C94.0002 195.1 97.2002 191.3 97.2002 184V174C97.2002 166.8 94.1002 163 87.9002 163Z" fill="white"/>
<path d="M100 163.6L99.5 164V194.2L100 194.6H112.1L112.5 194.2V190L112.1 189.6H106.5V164L106.1 163.6H100Z" fill="white"/>
<path d="M114.9 163.6L114.5 164V194.2L114.9 194.6H127L127.5 194.2V190L127 189.6H121.5V164L121 163.6H114.9Z" fill="white"/>
<path d="M129.9 163.6L129.5 164V194.2L129.9 194.6H142.5L142.9 194.2V190L142.5 189.6H136.4V181.2H140.6L141 180.7V176.4L140.6 176H136.4V168.7H142.5L142.9 168.2V164L142.5 163.6H129.9Z" fill="white"/>
<path d="M153.3 178.3L152.9 178.7V183.1L153.3 183.5H156.3V185.5C156.3 188.3 155.5 189.7 153.9 189.7C153.3 189.7 151.5 189.7 151.5 185.7V172.7C151.5 168.7 153.3 168.7 153.9 168.7C155.6 168.7 156.3 170 156.3 173.3V175.4L156.7 175.8H162.5L162.9 175.4V173.6C162.9 166.7 159.8 163.1 153.8 163.1C147.6 163.1 144.5 166.8 144.5 174.2V184.8C144.5 189.6 146.6 195.2 152.6 195.2C154.5 195.2 156.4 194.3 157.6 193L158.1 194.4L158.5 194.7H162.7L163.1 194.3V178.8L162.7 178.4H153.3V178.3Z" fill="white"/>
<path d="M166.5 163.6L166 164V194.2L166.5 194.6H179L179.5 194.2V190L179 189.6H173V181.2H177.2L177.6 180.7V176.4L177.2 176H173V168.7H179L179.5 168.2V164L179 163.6H166.5Z" fill="white"/>
</g>
<defs>
<clipPath id="clip0">
<rect width="197.7" height="175.2" fill="white" transform="translate(20 20)"/>
</clipPath>
</defs>
</svg>
